<svg xmlns="http://www.w3.org/2000/svg" width="888" height="600" viewBox="0 0 888 600">
  <path d="M198.225 508.844c0-.462.374-.857.836-.857.484 0 .858.374.858.857v1.167c.748-1.123 1.76-2.156 3.675-2.156 1.848 0 3.036.989 3.652 2.266.814-1.254 2.024-2.266 4.004-2.266 2.619 0 4.225 1.76 4.225 4.576v6.293a.84.84 0 0 1-.836.858.845.845 0 0 1-.858-.858v-5.896c0-2.201-1.101-3.433-2.949-3.433-1.716 0-3.125 1.276-3.125 3.521v5.809a.845.845 0 0 1-.858.858.84.84 0 0 1-.836-.858v-5.941c0-2.134-1.122-3.388-2.926-3.388s-3.168 1.496-3.168 3.586v5.743c0 .484-.352.858-.836.858a.845.845 0 0 1-.858-.858v-9.881zm20.218 4.995v-.044c0-3.213 2.509-5.94 5.941-5.94 3.411 0 5.919 2.684 5.919 5.896v.044c0 3.212-2.53 5.94-5.963 5.94-3.411 0-5.897-2.683-5.897-5.896zm10.121 0v-.044c0-2.442-1.826-4.444-4.225-4.444-2.464 0-4.159 2.002-4.159 4.4v.044c0 2.442 1.804 4.423 4.203 4.423 2.465 0 4.181-1.981 4.181-4.379zm15.621 4.885a.84.84 0 0 1-.836.858.845.845 0 0 1-.858-.858v-1.54c-.924 1.364-2.266 2.53-4.356 2.53-2.729 0-5.435-2.156-5.435-5.897v-.044c0-3.718 2.707-5.918 5.435-5.918 2.112 0 3.477 1.144 4.356 2.42v-6.117c0-.483.352-.857.836-.857s.858.374.858.857v14.566zm-9.748-4.973v.044c0 2.685 1.871 4.4 4.005 4.4 2.112 0 4.114-1.782 4.114-4.4v-.044c0-2.618-2.002-4.379-4.114-4.379-2.2 0-4.005 1.628-4.005 4.379zm18.503 5.984c-3.125 0-5.677-2.398-5.677-5.919v-.044c0-3.278 2.311-5.918 5.457-5.918 3.366 0 5.281 2.75 5.281 5.765a.789.789 0 0 1-.792.792h-8.229c.242 2.464 1.98 3.851 4.005 3.851 1.408 0 2.442-.55 3.278-1.32a.742.742 0 0 1 .484-.198c.418 0 .748.33.748.727a.732.732 0 0 1-.264.55c-1.079 1.033-2.355 1.714-4.291 1.714zm3.366-6.578c-.176-2.068-1.364-3.873-3.63-3.873-1.98 0-3.477 1.65-3.697 3.873h7.327zm4.685-4.313c0-.462.374-.857.836-.857.484 0 .858.374.858.857v2.135c.836-1.893 2.486-3.036 3.917-3.036.506 0 .836.374.836.857 0 .463-.308.792-.748.858-2.201.264-4.005 1.914-4.005 5.192v3.873c0 .462-.352.858-.836.858a.845.845 0 0 1-.858-.858v-9.879zm8.91 0c0-.462.374-.857.836-.857.484 0 .858.374.858.857v1.232c.748-1.232 1.937-2.222 3.895-2.222 2.75 0 4.357 1.848 4.357 4.554v6.315a.84.84 0 0 1-.836.858.845.845 0 0 1-.858-.858v-5.896c0-2.112-1.144-3.433-3.146-3.433-1.958 0-3.411 1.43-3.411 3.564v5.765c0 .484-.352.858-.836.858a.845.845 0 0 1-.858-.858v-9.879zm12.98 4.005c0-.462.396-.88.88-.88h4.577c.484 0 .88.418.88.88 0 .484-.396.902-.88.902h-4.577c-.484 0-.88-.418-.88-.902zm9.547-4.005c0-.462.374-.857.836-.857.484 0 .858.374.858.857v1.232c.748-1.232 1.937-2.222 3.895-2.222 2.75 0 4.357 1.848 4.357 4.554v6.315a.84.84 0 0 1-.836.858.845.845 0 0 1-.858-.858v-5.896c0-2.112-1.144-3.433-3.146-3.433-1.958 0-3.411 1.43-3.411 3.564v5.765c0 .484-.352.858-.836.858a.845.845 0 0 1-.858-.858v-9.879zm12.848 4.995v-.044c0-3.213 2.509-5.94 5.941-5.94 3.411 0 5.919 2.684 5.919 5.896v.044c0 3.212-2.53 5.94-5.963 5.94-3.411 0-5.897-2.683-5.897-5.896zm10.121 0v-.044c0-2.442-1.826-4.444-4.225-4.444-2.464 0-4.159 2.002-4.159 4.4v.044c0 2.442 1.804 4.423 4.203 4.423 2.465 0 4.181-1.981 4.181-4.379zm4.795-4.995c0-.462.374-.857.836-.857.484 0 .858.374.858.857v2.135c.836-1.893 2.486-3.036 3.917-3.036.506 0 .836.374.836.857 0 .463-.308.792-.748.858-2.201.264-4.005 1.914-4.005 5.192v3.873c0 .462-.352.858-.836.858a.845.845 0 0 1-.858-.858v-9.879zm8.91 0c0-.462.374-.857.836-.857.484 0 .858.374.858.857v1.167c.748-1.123 1.76-2.156 3.675-2.156 1.848 0 3.036.989 3.652 2.266.814-1.254 2.024-2.266 4.004-2.266 2.619 0 4.225 1.76 4.225 4.576v6.293a.84.84 0 0 1-.836.858.845.845 0 0 1-.858-.858v-5.896c0-2.201-1.101-3.433-2.949-3.433-1.716 0-3.125 1.276-3.125 3.521v5.809a.845.845 0 0 1-.858.858.84.84 0 0 1-.836-.858v-5.941c0-2.134-1.122-3.388-2.926-3.388s-3.168 1.496-3.168 3.586v5.743c0 .484-.352.858-.836.858a.845.845 0 0 1-.858-.858v-9.881zm20.064 7.327v-.044c0-2.398 1.98-3.674 4.863-3.674 1.452 0 2.486.197 3.499.483v-.396c0-2.047-1.254-3.103-3.389-3.103a7.101 7.101 0 0 0-2.948.638.864.864 0 0 1-.308.066c-.396 0-.748-.33-.748-.727 0-.352.242-.616.462-.704a8.986 8.986 0 0 1 3.719-.77c1.606 0 2.838.418 3.674 1.254.77.77 1.166 1.87 1.166 3.322v6.227c0 .484-.352.837-.814.837-.484 0-.814-.353-.814-.792v-1.034c-.792 1.034-2.112 1.958-4.115 1.958-2.113.002-4.247-1.208-4.247-3.541zm8.383-.88v-1.101a11.907 11.907 0 0 0-3.345-.483c-2.134 0-3.322.924-3.322 2.354v.044c0 1.43 1.32 2.266 2.86 2.266 2.091 0 3.807-1.275 3.807-3.08zm5.367-11.134c0-.462.374-.857.836-.857.484 0 .858.396.858.857v14.566c0 .484-.352.858-.836.858a.845.845 0 0 1-.858-.858v-14.566zm5.631.374c0-.55.44-.901.99-.901.572 0 1.012.352 1.012.901v.286c0 .528-.44.902-1.012.902-.55 0-.99-.374-.99-.902v-.286zm.155 4.313c0-.462.374-.857.836-.857.484 0 .858.374.858.857v9.88c0 .484-.352.858-.836.858a.845.845 0 0 1-.858-.858v-9.88zm4.971 9.946v-.045c0-.285.11-.506.352-.77l7.195-8.449h-6.645a.714.714 0 0 1-.726-.704c0-.396.33-.727.726-.727h8.119c.462 0 .814.309.814.683v.044c0 .286-.11.506-.352.77l-7.195 8.449h6.931c.396 0 .726.33.726.704 0 .396-.33.727-.726.727h-8.405c-.44 0-.814-.308-.814-.682zm17.535.945c-3.124 0-5.677-2.398-5.677-5.919v-.044c0-3.278 2.311-5.918 5.457-5.918 3.366 0 5.281 2.75 5.281 5.765a.789.789 0 0 1-.792.792h-8.229c.242 2.464 1.98 3.851 4.005 3.851 1.408 0 2.442-.55 3.278-1.32a.742.742 0 0 1 .484-.198c.418 0 .748.33.748.727a.732.732 0 0 1-.264.55c-1.079 1.033-2.355 1.714-4.291 1.714zm3.366-6.578c-.176-2.068-1.364-3.873-3.63-3.873-1.98 0-3.477 1.65-3.697 3.873h7.327zm5.28 3.895c.594 0 1.034.439 1.034 1.034v.439c0 .595-.44 1.057-1.034 1.057-.616 0-1.056-.462-1.056-1.057v-.439c-.001-.595.439-1.034 1.056-1.034zm3.431-3.213v-.044c0-3.213 2.509-5.94 5.831-5.94 1.892 0 3.168.726 4.181 1.649a.812.812 0 0 1-.55 1.408.882.882 0 0 1-.55-.197c-.814-.749-1.738-1.364-3.103-1.364-2.311 0-4.071 1.958-4.071 4.4v.044c0 2.464 1.804 4.423 4.181 4.423 1.298 0 2.333-.595 3.168-1.387a.674.674 0 0 1 .484-.22c.418 0 .77.374.77.771a.766.766 0 0 1-.22.527c-1.078 1.078-2.376 1.826-4.291 1.826-3.322 0-5.83-2.706-5.83-5.896zm12.65 4.423a.765.765 0 0 1-.308-.616c0-.396.33-.727.748-.727.154 0 .308.044.418.133 1.166.792 2.376 1.21 3.608 1.21 1.364 0 2.354-.704 2.354-1.805v-.044c0-1.144-1.342-1.584-2.838-2.002-1.782-.506-3.763-1.122-3.763-3.213v-.044c0-1.958 1.628-3.256 3.873-3.256 1.21 0 2.53.374 3.631.968.22.132.418.374.418.704 0 .396-.33.726-.748.726a.85.85 0 0 1-.374-.088c-.968-.55-2.002-.88-2.971-.88-1.342 0-2.2.704-2.2 1.65v.044c0 1.078 1.408 1.496 2.926 1.958 1.76.528 3.653 1.21 3.653 3.257v.044c0 2.156-1.783 3.41-4.049 3.41-1.496 0-3.146-.549-4.378-1.429zm10.736 0a.765.765 0 0 1-.308-.616c0-.396.33-.727.748-.727.154 0 .308.044.418.133 1.166.792 2.376 1.21 3.608 1.21 1.364 0 2.354-.704 2.354-1.805v-.044c0-1.144-1.342-1.584-2.838-2.002-1.782-.506-3.763-1.122-3.763-3.213v-.044c0-1.958 1.628-3.256 3.873-3.256 1.21 0 2.53.374 3.631.968.22.132.418.374.418.704 0 .396-.33.726-.748.726a.85.85 0 0 1-.374-.088c-.968-.55-2.002-.88-2.971-.88-1.342 0-2.2.704-2.2 1.65v.044c0 1.078 1.408 1.496 2.926 1.958 1.76.528 3.653 1.21 3.653 3.257v.044c0 2.156-1.782 3.41-4.049 3.41-1.496 0-3.146-.549-4.378-1.429zm18.809-8.67h-.924c-.418 0-.727-.329-.727-.748 0-.396.33-.726.727-.726h.924v-.99c0-1.298.352-2.288.99-2.927.572-.571 1.408-.88 2.441-.88.551 0 .969.044 1.342.132.33.066.617.353.617.727a.73.73 0 0 1-.814.726c-.285-.044-.594-.109-.924-.109-1.32 0-1.98.792-1.98 2.42v.924h2.949c.418 0 .748.309.748.727 0 .396-.33.726-.748.726h-2.928v9.132c0 .462-.352.858-.836.858s-.857-.396-.857-.858v-9.134zm6.512 4.247v-.044c0-3.213 2.508-5.94 5.941-5.94 3.41 0 5.918 2.684 5.918 5.896v.044c0 3.212-2.529 5.94-5.963 5.94-3.409 0-5.896-2.683-5.896-5.896zm10.121 0v-.044c0-2.442-1.826-4.444-4.225-4.444-2.463 0-4.158 2.002-4.158 4.4v.044c0 2.442 1.805 4.423 4.203 4.423 2.465 0 4.18-1.981 4.18-4.379zm4.795-4.995c0-.462.375-.857.836-.857.484 0 .859.374.859.857v2.135c.836-1.893 2.486-3.036 3.916-3.036.506 0 .836.374.836.857 0 .463-.309.792-.748.858-2.201.264-4.004 1.914-4.004 5.192v3.873a.842.842 0 0 1-.838.858.846.846 0 0 1-.857-.858v-9.879zm14.895 9.418a.766.766 0 0 1-.309-.616c0-.396.33-.727.748-.727a.67.67 0 0 1 .418.133c1.166.792 2.377 1.21 3.609 1.21 1.363 0 2.354-.704 2.354-1.805v-.044c0-1.144-1.342-1.584-2.838-2.002-1.783-.506-3.764-1.122-3.764-3.213v-.044c0-1.958 1.629-3.256 3.873-3.256 1.211 0 2.531.374 3.631.968a.82.82 0 0 1 .418.704c0 .396-.33.726-.748.726a.856.856 0 0 1-.375-.088c-.967-.55-2.002-.88-2.969-.88-1.344 0-2.201.704-2.201 1.65v.044c0 1.078 1.408 1.496 2.926 1.958 1.762.528 3.652 1.21 3.652 3.257v.044c0 2.156-1.781 3.41-4.047 3.41-1.497 0-3.146-.549-4.378-1.429zm11.945-1.805v-6.865h-.924a.771.771 0 0 1-.748-.748c0-.418.352-.748.748-.748h.924v-2.684c0-.463.354-.858.836-.858.463 0 .859.396.859.858v2.684h2.947c.418 0 .771.353.771.748 0 .419-.354.748-.771.748h-2.947v6.646c0 1.386.77 1.893 1.914 1.893.594 0 .902-.154 1.033-.154.396 0 .727.33.727.726 0 .309-.197.551-.484.66-.484.198-1.012.309-1.672.309-1.826-.002-3.213-.904-3.213-3.215zm8.074 6.272c-.264-.11-.527-.33-.527-.727 0-.418.352-.726.725-.726.154 0 .287.044.418.088.33.109.66.197 1.232.197 1.057 0 1.672-.638 2.289-2.023l.088-.177-4.752-10.077a1.184 1.184 0 0 1-.111-.462c0-.462.375-.836.859-.836.461 0 .703.286.857.66l3.961 8.933 3.52-8.955c.133-.352.375-.638.814-.638.463 0 .836.374.836.836 0 .132-.043.286-.088.418l-4.445 10.605c-.988 2.354-2.09 3.213-3.805 3.213-.75.001-1.298-.132-1.871-.329zm13.287-18.572c0-.462.375-.857.838-.857a.86.86 0 0 1 .857.857v14.566c0 .484-.352.858-.836.858s-.859-.374-.859-.858v-14.566zm10.606 15.578c-3.125 0-5.676-2.398-5.676-5.919v-.044c0-3.278 2.309-5.918 5.455-5.918 3.367 0 5.281 2.75 5.281 5.765a.788.788 0 0 1-.791.792h-8.23c.242 2.464 1.98 3.851 4.006 3.851 1.408 0 2.441-.55 3.277-1.32.133-.11.287-.198.484-.198.418 0 .748.33.748.727a.732.732 0 0 1-.264.55c-1.077 1.033-2.353 1.714-4.29 1.714zm3.367-6.578c-.176-2.068-1.365-3.873-3.631-3.873-1.98 0-3.477 1.65-3.697 3.873h7.328zm15.51 5.567a.841.841 0 0 1-.836.858.846.846 0 0 1-.859-.858v-1.54c-.924 1.364-2.266 2.53-4.355 2.53-2.729 0-5.436-2.156-5.436-5.897v-.044c0-3.718 2.707-5.918 5.436-5.918 2.111 0 3.477 1.144 4.355 2.42v-6.117c0-.483.354-.857.836-.857.484 0 .859.374.859.857v14.566zm-9.748-4.973v.044c0 2.685 1.871 4.4 4.004 4.4 2.113 0 4.115-1.782 4.115-4.4v-.044c0-2.618-2.002-4.379-4.115-4.379-2.2 0-4.004 1.628-4.004 4.379zm12.957-.902c0-.462.396-.88.881-.88h4.576c.484 0 .881.418.881.88 0 .484-.396.902-.881.902h-4.576c-.485 0-.881-.418-.881-.902zm8.844.99v-.044c0-3.213 2.508-5.94 5.83-5.94 1.893 0 3.17.726 4.182 1.649a.81.81 0 0 1-.55 1.408.879.879 0 0 1-.549-.197c-.814-.749-1.738-1.364-3.104-1.364-2.311 0-4.07 1.958-4.07 4.4v.044c0 2.464 1.805 4.423 4.182 4.423 1.297 0 2.332-.595 3.168-1.387a.673.673 0 0 1 .484-.22c.418 0 .77.374.77.771a.762.762 0 0 1-.221.527c-1.078 1.078-2.375 1.826-4.291 1.826-3.324 0-5.831-2.706-5.831-5.896zm12.232 0v-.044c0-3.213 2.508-5.94 5.939-5.94 3.41 0 5.92 2.684 5.92 5.896v.044c0 3.212-2.531 5.94-5.963 5.94-3.41 0-5.896-2.683-5.896-5.896zm10.121 0v-.044c0-2.442-1.826-4.444-4.225-4.444-2.465 0-4.158 2.002-4.158 4.4v.044c0 2.442 1.803 4.423 4.201 4.423 2.465 0 4.182-1.981 4.182-4.379zm4.795-4.995c0-.462.373-.857.836-.857.484 0 .857.374.857.857v1.167c.748-1.123 1.76-2.156 3.674-2.156 1.85 0 3.037.989 3.654 2.266.813-1.254 2.023-2.266 4.004-2.266 2.617 0 4.225 1.76 4.225 4.576v6.293a.841.841 0 0 1-.836.858.846.846 0 0 1-.859-.858v-5.896c0-2.201-1.1-3.433-2.947-3.433-1.717 0-3.125 1.276-3.125 3.521v5.809a.845.845 0 0 1-.857.858.84.84 0 0 1-.836-.858v-5.941c0-2.134-1.123-3.388-2.928-3.388-1.803 0-3.168 1.496-3.168 3.586v5.743c0 .484-.352.858-.836.858s-.857-.374-.857-.858v-9.881zm20.922 0a.84.84 0 0 1 .836-.857c.484 0 .857.374.857.857v1.541c.924-1.364 2.266-2.53 4.357-2.53 2.729 0 5.434 2.156 5.434 5.896v.044c0 3.719-2.684 5.919-5.434 5.919-2.113 0-3.477-1.145-4.357-2.421v4.951c0 .484-.352.858-.836.858s-.857-.374-.857-.858v-13.4zm9.746 4.972v-.044c0-2.684-1.848-4.4-4.004-4.4-2.113 0-4.115 1.782-4.115 4.379v.044c0 2.641 2.002 4.4 4.115 4.4 2.199 0 4.004-1.628 4.004-4.379zm4.156.023v-.044c0-3.213 2.508-5.94 5.941-5.94 3.41 0 5.918 2.684 5.918 5.896v.044c0 3.212-2.529 5.94-5.963 5.94-3.409 0-5.896-2.683-5.896-5.896zm10.121 0v-.044c0-2.442-1.826-4.444-4.225-4.444-2.463 0-4.158 2.002-4.158 4.4v.044c0 2.442 1.805 4.423 4.203 4.423 2.465 0 4.18-1.981 4.18-4.379zm4.795-4.995c0-.462.375-.857.836-.857.484 0 .859.374.859.857v1.232c.748-1.232 1.936-2.222 3.895-2.222 2.75 0 4.355 1.848 4.355 4.554v6.315a.84.84 0 0 1-.836.858.845.845 0 0 1-.857-.858v-5.896c0-2.112-1.145-3.433-3.146-3.433-1.959 0-3.41 1.43-3.41 3.564v5.765c0 .484-.354.858-.838.858a.846.846 0 0 1-.857-.858v-9.879zm18.526 10.891c-3.125 0-5.678-2.398-5.678-5.919v-.044c0-3.278 2.311-5.918 5.457-5.918 3.367 0 5.281 2.75 5.281 5.765a.79.79 0 0 1-.793.792h-8.229c.242 2.464 1.98 3.851 4.004 3.851 1.408 0 2.443-.55 3.279-1.32a.738.738 0 0 1 .484-.198c.418 0 .748.33.748.727a.727.727 0 0 1-.266.55c-1.076 1.033-2.352 1.714-4.287 1.714zm3.365-6.578c-.176-2.068-1.363-3.873-3.631-3.873-1.979 0-3.477 1.65-3.695 3.873h7.326zm4.685-4.313c0-.462.373-.857.836-.857.484 0 .857.374.857.857v1.232c.748-1.232 1.936-2.222 3.895-2.222 2.75 0 4.357 1.848 4.357 4.554v6.315a.841.841 0 0 1-.836.858.846.846 0 0 1-.859-.858v-5.896c0-2.112-1.145-3.433-3.146-3.433-1.957 0-3.41 1.43-3.41 3.564v5.765c0 .484-.352.858-.836.858s-.857-.374-.857-.858v-9.879zm14.145 7.613v-6.865h-.924a.771.771 0 0 1-.748-.748c0-.418.352-.748.748-.748h.924v-2.684c0-.463.354-.858.836-.858.463 0 .859.396.859.858v2.684h2.947c.418 0 .771.353.771.748 0 .419-.354.748-.771.748h-2.947v6.646c0 1.386.77 1.893 1.914 1.893.594 0 .902-.154 1.033-.154.396 0 .727.33.727.726 0 .309-.197.551-.484.66-.484.198-1.012.309-1.672.309-1.826-.002-3.213-.904-3.213-3.215zm7.678 1.805a.766.766 0 0 1-.309-.616c0-.396.33-.727.748-.727a.68.68 0 0 1 .42.133c1.166.792 2.375 1.21 3.607 1.21 1.365 0 2.355-.704 2.355-1.805v-.044c0-1.144-1.344-1.584-2.84-2.002-1.781-.506-3.762-1.122-3.762-3.213v-.044c0-1.958 1.627-3.256 3.873-3.256 1.209 0 2.529.374 3.629.968a.82.82 0 0 1 .418.704c0 .396-.33.726-.748.726a.853.853 0 0 1-.373-.088c-.969-.55-2.002-.88-2.971-.88-1.342 0-2.201.704-2.201 1.65v.044c0 1.078 1.408 1.496 2.928 1.958 1.76.528 3.652 1.21 3.652 3.257v.044c0 2.156-1.783 3.41-4.049 3.41-1.495 0-3.145-.549-4.377-1.429z" fill="#3C2452"/>
  <path fill="none" d="M196.333 503.302h495.333v20.666H196.333z"/>
  <path d="M156.353 473.991c-.585-.315-1.035-.99-1.035-1.89a2.18 2.18 0 0 1 2.205-2.205c.45 0 .855.135 1.17.314 2.295 1.53 4.68 2.295 6.84 2.295 2.34 0 3.689-.989 3.689-2.564v-.09c0-1.846-2.52-2.476-5.31-3.33-3.51-.99-7.425-2.43-7.425-6.975v-.09c0-4.5 3.735-7.245 8.46-7.245 2.52 0 5.175.72 7.47 1.935.765.405 1.305 1.125 1.305 2.07 0 1.26-.99 2.205-2.25 2.205-.45 0-.72-.09-1.08-.271-1.935-.989-3.915-1.619-5.58-1.619-2.115 0-3.33.989-3.33 2.34v.09c0 1.755 2.564 2.475 5.354 3.375 3.465 1.08 7.38 2.654 7.38 6.93v.09c0 4.994-3.87 7.47-8.82 7.47-3.013 0-6.298-.945-9.043-2.835zm24.12-4.184v-12.51h-.9c-1.305 0-2.34-1.035-2.34-2.34s1.035-2.34 2.34-2.34h.9v-4.05c0-1.485 1.215-2.7 2.745-2.7 1.485 0 2.7 1.215 2.7 2.7v4.05h4.275c1.305 0 2.385 1.035 2.385 2.34s-1.08 2.34-2.385 2.34h-4.275v11.654c0 2.115 1.08 2.97 2.925 2.97.63 0 1.17-.135 1.35-.135 1.215 0 2.295.99 2.295 2.25 0 .99-.675 1.8-1.44 2.115a10.85 10.85 0 0 1-3.734.63c-4.006 0-6.841-1.755-6.841-6.974zm17.909 13.229c-.81-.271-1.71-.945-1.71-2.25 0-1.351 1.035-2.25 2.205-2.25.45 0 .72.09.99.18.63.18 1.125.315 1.89.315 1.62 0 2.475-.676 3.375-2.521l.18-.495-8.82-19.709c-.18-.405-.315-.944-.315-1.305 0-1.53 1.17-2.655 2.7-2.655 1.395 0 2.16.811 2.655 2.07l6.39 15.794 5.939-15.794c.45-1.125 1.215-2.07 2.61-2.07 1.44 0 2.61 1.125 2.61 2.565 0 .45-.135 1.035-.225 1.305l-8.685 20.834c-2.025 4.86-4.185 6.66-8.01 6.66-1.529.001-2.654-.225-3.779-.674zm26.19-37.034a2.68 2.68 0 0 1 2.7-2.699c1.53 0 2.745 1.215 2.745 2.699v27.899c0 1.529-1.215 2.699-2.745 2.699a2.68 2.68 0 0 1-2.7-2.699v-27.899zm23.444 30.914c-6.885 0-12.195-4.995-12.195-12.329v-.091c0-6.794 4.815-12.374 11.61-12.374 7.56 0 11.294 6.21 11.294 11.699 0 1.53-1.17 2.61-2.565 2.61h-14.895c.585 3.869 3.33 6.029 6.84 6.029 2.295 0 4.095-.81 5.625-2.069.405-.315.765-.495 1.395-.495 1.215 0 2.16.944 2.16 2.205 0 .675-.315 1.26-.72 1.664-2.159 1.936-4.859 3.151-8.549 3.151zm5.4-14.085c-.36-3.51-2.43-6.254-6.03-6.254-3.33 0-5.669 2.564-6.165 6.254h12.195zm34.244 11.07a2.68 2.68 0 0 1-2.7 2.699c-1.53 0-2.745-1.17-2.745-2.699v-1.485c-1.755 2.475-4.23 4.455-8.1 4.455-5.58 0-11.024-4.455-11.024-12.33v-.09c0-7.874 5.354-12.329 11.024-12.329 3.915 0 6.39 1.935 8.1 4.185v-10.305a2.68 2.68 0 0 1 2.7-2.699c1.53 0 2.745 1.17 2.745 2.699v27.899zm-19.079-9.45v.09c0 4.59 3.15 7.605 6.839 7.605 3.645 0 6.885-3.061 6.885-7.605v-.09c0-4.59-3.24-7.604-6.885-7.604-3.734 0-6.839 2.88-6.839 7.604zm24.794-1.845c0-1.484 1.215-2.7 2.655-2.7h8.46c1.44 0 2.655 1.216 2.655 2.7 0 1.44-1.215 2.655-2.655 2.655h-8.46c-1.44.001-2.655-1.214-2.655-2.655zm19.485-7.514c0-1.53 1.17-2.745 2.7-2.745a2.727 2.727 0 0 1 2.745 2.745v1.125c1.53-2.115 3.6-4.095 7.245-4.095 3.42 0 5.85 1.665 7.11 4.185 1.89-2.52 4.41-4.185 8.009-4.185 5.175 0 8.325 3.285 8.325 9.09v12.689c0 1.529-1.17 2.699-2.7 2.699s-2.745-1.17-2.745-2.699v-11.024c0-3.78-1.755-5.806-4.814-5.806-2.97 0-5.085 2.07-5.085 5.896v10.935a2.68 2.68 0 0 1-2.7 2.699c-1.53 0-2.745-1.17-2.745-2.699v-11.07c0-3.689-1.8-5.76-4.815-5.76-3.015 0-5.084 2.25-5.084 5.896v10.935c0 1.529-1.215 2.699-2.745 2.699a2.68 2.68 0 0 1-2.7-2.699v-18.811zm41.445 9.54v-.091c0-6.794 5.4-12.419 12.689-12.419 7.29 0 12.645 5.535 12.645 12.329v.09c0 6.75-5.399 12.375-12.734 12.375-7.245 0-12.6-5.535-12.6-12.284zm19.889 0v-.091c0-4.185-3.015-7.649-7.29-7.649-4.365 0-7.155 3.42-7.155 7.56v.09c0 4.141 3.015 7.605 7.245 7.605 4.41-.001 7.2-3.42 7.2-7.515zm34.335 9.269a2.68 2.68 0 0 1-2.7 2.699c-1.53 0-2.745-1.17-2.745-2.699v-1.485c-1.755 2.475-4.23 4.455-8.1 4.455-5.58 0-11.024-4.455-11.024-12.33v-.09c0-7.874 5.354-12.329 11.024-12.329 3.915 0 6.39 1.935 8.1 4.185v-10.305a2.68 2.68 0 0 1 2.7-2.699c1.53 0 2.745 1.17 2.745 2.699v27.899zm-19.079-9.45v.09c0 4.59 3.15 7.605 6.839 7.605 3.645 0 6.885-3.061 6.885-7.605v-.09c0-4.59-3.24-7.604-6.885-7.604-3.734 0-6.839 2.88-6.839 7.604zm36.809 12.465c-6.885 0-12.195-4.995-12.195-12.329v-.091c0-6.794 4.815-12.374 11.61-12.374 7.56 0 11.294 6.21 11.294 11.699 0 1.53-1.17 2.61-2.565 2.61h-14.895c.585 3.869 3.33 6.029 6.84 6.029 2.295 0 4.095-.81 5.625-2.069.405-.315.765-.495 1.395-.495 1.215 0 2.16.944 2.16 2.205 0 .675-.315 1.26-.72 1.664-2.16 1.936-4.86 3.151-8.549 3.151zm5.399-14.085c-.36-3.51-2.43-6.254-6.029-6.254-3.33 0-5.67 2.564-6.165 6.254h12.194zm10.891-7.739c0-1.53 1.17-2.745 2.699-2.745a2.728 2.728 0 0 1 2.746 2.745v2.43c1.26-2.97 3.6-5.22 5.984-5.22 1.71 0 2.699 1.125 2.699 2.7 0 1.439-.944 2.385-2.16 2.609-3.869.676-6.523 3.646-6.523 9.271v7.02c0 1.484-1.215 2.699-2.746 2.699a2.679 2.679 0 0 1-2.699-2.699v-18.81zm18.585 0c0-1.53 1.17-2.745 2.7-2.745a2.727 2.727 0 0 1 2.744 2.745v1.17c1.53-2.205 3.735-4.14 7.426-4.14 5.354 0 8.459 3.6 8.459 9.09v12.689c0 1.529-1.17 2.699-2.7 2.699s-2.745-1.17-2.745-2.699v-11.024c0-3.69-1.844-5.806-5.084-5.806-3.15 0-5.355 2.205-5.355 5.896v10.935c0 1.529-1.215 2.699-2.744 2.699a2.68 2.68 0 0 1-2.7-2.699v-18.81zm26.774 7.514c0-1.484 1.215-2.7 2.655-2.7h8.459c1.44 0 2.655 1.216 2.655 2.7 0 1.44-1.215 2.655-2.655 2.655h-8.459c-1.44.001-2.655-1.214-2.655-2.655zm19.485-7.514c0-1.53 1.17-2.745 2.7-2.745a2.727 2.727 0 0 1 2.744 2.745v1.17c1.53-2.205 3.735-4.14 7.425-4.14 5.355 0 8.46 3.6 8.46 9.09v12.689c0 1.529-1.17 2.699-2.7 2.699-1.529 0-2.744-1.17-2.744-2.699v-11.024c0-3.69-1.846-5.806-5.085-5.806-3.15 0-5.355 2.205-5.355 5.896v10.935c0 1.529-1.215 2.699-2.744 2.699a2.68 2.68 0 0 1-2.7-2.699v-18.81zm26.594 9.54v-.091c0-6.794 5.399-12.419 12.689-12.419 7.289 0 12.645 5.535 12.645 12.329v.09c0 6.75-5.4 12.375-12.734 12.375-7.245 0-12.6-5.535-12.6-12.284zm19.889 0v-.091c0-4.185-3.015-7.649-7.289-7.649-4.365 0-7.155 3.42-7.155 7.56v.09c0 4.141 3.015 7.605 7.245 7.605 4.409-.001 7.199-3.42 7.199-7.515zm10.98-9.54c0-1.53 1.17-2.745 2.7-2.745a2.727 2.727 0 0 1 2.744 2.745v2.43c1.261-2.97 3.601-5.22 5.985-5.22 1.71 0 2.699 1.125 2.699 2.7 0 1.439-.944 2.385-2.159 2.609-3.87.676-6.525 3.646-6.525 9.271v7.02c0 1.484-1.215 2.699-2.744 2.699a2.68 2.68 0 0 1-2.7-2.699v-18.81zm18.585 0c0-1.53 1.17-2.745 2.7-2.745a2.727 2.727 0 0 1 2.744 2.745v1.125c1.53-2.115 3.601-4.095 7.245-4.095 3.42 0 5.85 1.665 7.109 4.185 1.891-2.52 4.41-4.185 8.01-4.185 5.175 0 8.325 3.285 8.325 9.09v12.689c0 1.529-1.17 2.699-2.7 2.699s-2.745-1.17-2.745-2.699v-11.024c0-3.78-1.755-5.806-4.814-5.806-2.97 0-5.085 2.07-5.085 5.896v10.935a2.68 2.68 0 0 1-2.7 2.699c-1.529 0-2.744-1.17-2.744-2.699v-11.07c0-3.689-1.801-5.76-4.815-5.76s-5.085 2.25-5.085 5.896v10.935c0 1.529-1.215 2.699-2.744 2.699a2.68 2.68 0 0 1-2.7-2.699v-18.811zm41.175 14.444v-.09c0-5.13 4.005-7.649 9.81-7.649 2.655 0 4.545.404 6.39.989v-.585c0-3.374-2.069-5.175-5.895-5.175-2.07 0-3.779.36-5.265.945-.315.09-.585.135-.855.135-1.26 0-2.295-.989-2.295-2.25 0-.989.676-1.845 1.485-2.159 2.25-.855 4.545-1.396 7.649-1.396 3.556 0 6.21.945 7.875 2.655 1.755 1.71 2.564 4.229 2.564 7.335v11.699c0 1.484-1.17 2.609-2.654 2.609-1.575 0-2.655-1.079-2.655-2.295v-.899c-1.62 1.935-4.095 3.465-7.739 3.465-4.455.001-8.415-2.564-8.415-7.334zm16.289-1.71v-1.62c-1.395-.54-3.239-.944-5.399-.944-3.51 0-5.58 1.484-5.58 3.96v.09c0 2.295 2.025 3.6 4.635 3.6 3.6-.001 6.344-2.071 6.344-5.086zm12.016-21.824a2.68 2.68 0 0 1 2.7-2.699c1.53 0 2.745 1.215 2.745 2.699v27.899c0 1.529-1.215 2.699-2.745 2.699a2.68 2.68 0 0 1-2.7-2.699v-27.899zm12.466.226c0-1.62 1.35-2.655 3.104-2.655s3.105 1.035 3.105 2.655v.27c0 1.62-1.351 2.7-3.105 2.7s-3.104-1.08-3.104-2.7v-.27zm.404 8.864c0-1.53 1.171-2.745 2.7-2.745a2.727 2.727 0 0 1 2.745 2.745v18.81c0 1.529-1.215 2.699-2.745 2.699a2.68 2.68 0 0 1-2.7-2.699v-18.81zm11.341 19.079v-.09c0-1.035.359-1.71 1.215-2.61l12.645-14.399h-11.205c-1.26 0-2.249-.989-2.249-2.204 0-1.261.989-2.25 2.249-2.25h15.66c1.484 0 2.609.899 2.609 2.159v.136c0 1.035-.359 1.71-1.17 2.609l-12.689 14.399h11.699c1.261 0 2.25.99 2.25 2.25 0 1.215-.989 2.205-2.25 2.205h-16.109c-1.53 0-2.655-.945-2.655-2.205zm36.63 2.745c-6.885 0-12.194-4.995-12.194-12.329v-.091c0-6.794 4.814-12.374 11.609-12.374 7.56 0 11.294 6.21 11.294 11.699 0 1.53-1.17 2.61-2.564 2.61h-14.895c.585 3.869 3.33 6.029 6.84 6.029 2.295 0 4.095-.81 5.625-2.069.404-.315.765-.495 1.395-.495 1.215 0 2.16.944 2.16 2.205 0 .675-.315 1.26-.72 1.664-2.161 1.936-4.861 3.151-8.55 3.151zm5.399-14.085c-.359-3.51-2.43-6.254-6.029-6.254-3.33 0-5.67 2.564-6.165 6.254h12.194z" fill="#3C2452"/>
  <path fill="none" d="M153.833 443.302h580.333v45H153.833z"/>
  <path fill="#50E3C2" d="M446.559 152.598l112.744 112.743c2.082 2.082 2.621 3.055 2.977 4.223a6.003 6.003 0 0 1 0 3.531c-.355 1.169-.895 2.141-2.977 4.223L446.559 390.062c-2.083 2.082-3.053 2.619-4.223 2.975a6.003 6.003 0 0 1-3.531 0c-1.168-.355-2.141-.893-4.223-2.975L321.839 277.317c-2.082-2.082-2.621-3.054-2.975-4.223a5.987 5.987 0 0 1 0-3.531c.354-1.168.893-2.141 2.975-4.223l112.742-112.743c2.082-2.082 3.055-2.62 4.223-2.974a5.987 5.987 0 0 1 3.531 0c1.17.355 2.141.893 4.224 2.975z"/>
  <path fill="#3A1D52" d="M424.431 251.917l11.982 10.645c9.852 4.936 19.917 2.05 30.391 3.641a182.011 182.011 0 0 1-12.684-11.14 202.473 202.473 0 0 1-6.125-6.17c-1.949-2.05-4.215-3.993-3.549-6.629.426-1.835 2.104-3.282 4.659-3.716 2.996-.51 5.83.01 8.078 1.511 1.145.763 1.867 1.823 2.707 2.757a187.976 187.976 0 0 0 7.813 8.184c3.436 3.391 7.049 6.689 10.773 9.92a377.945 377.945 0 0 0 5.805 4.922 579.446 579.446 0 0 0 4.652 3.83l.783.639c.215.175.824.521.904.736.008.309-.73.756-1.018.99a685.863 685.863 0 0 0-4.795 3.938 397.13 397.13 0 0 0-5.838 4.933c-3.732 3.226-7.357 6.515-10.809 9.897a186.188 186.188 0 0 0-7.816 8.13c-.834.922-1.568 1.983-2.557 2.819-1.912 1.621-4.947 2.461-7.879 2.078-1.4-.182-2.623-.473-3.641-1.207-.879-.637-1.459-1.439-1.735-2.309-.289-.921-.307-1.888.045-2.803.412-1.077 1.362-1.971 2.219-2.885a213.133 213.133 0 0 1 5.646-5.803 182.719 182.719 0 0 1 14.359-12.775c-9.9 1.505-23.075-.813-29.999 3.222-1.105.644-2.117 1.571-2.873 2.347-1.008 1.031-2.191 1.902-3.283 2.889a205.085 205.085 0 0 0-9.215 8.845c-2.537 2.601-4.678 5.967-7.76 8.231-2.77 2.035-8.068 2.729-11.135.586-3.838-2.685-1.209-6.172 1.221-8.729a203.968 203.968 0 0 1 8.51-8.489c3.025-2.834 6.203-5.57 9.463-8.266 2.895-2.395 5.813-4.809 10.316-5.551-7.004-1.153-11.861-6.702-16.104-10.465-4.785-4.246-9.408-8.662-13.527-13.26-4.125-4.605.693-10.617 8.58-8.07 3.436 1.109 4.945 3.738 6.92 5.877a190.603 190.603 0 0 0 6.512 6.703v-.003z"/>
  <g fill="#ED5A81">
    <path d="M524.234 288.148a1.301 1.301 0 0 1-1.838.065 1.302 1.302 0 0 1-.063-1.838l5.316-5.701a1.299 1.299 0 1 1 1.9 1.772l-5.315 5.702zm.258-8.81a1.298 1.298 0 0 1-1.836.065 1.302 1.302 0 0 1-.066-1.838l6.5-6.968a1.3 1.3 0 0 1 1.901 1.773l-6.499 6.968zm-20.01 13.067a1.3 1.3 0 0 1-1.838.064 1.302 1.302 0 0 1-.064-1.837l5.318-5.702a1.296 1.296 0 0 1 1.836-.063c.523.488.555 1.31.064 1.835l-5.316 5.703zm11.637-7.318a1.303 1.303 0 0 1-1.838.064 1.303 1.303 0 0 1-.063-1.837l4.137-4.436a1.297 1.297 0 0 1 1.834-.065 1.3 1.3 0 0 1 .064 1.839l-4.134 4.435zm-2.681 9.94a1.303 1.303 0 0 1-1.84.065 1.302 1.302 0 0 1-.061-1.838l6.5-6.969a1.3 1.3 0 0 1 1.9 1.772l-6.499 6.97zm5.484 4.21a1.3 1.3 0 0 1-1.836.063 1.303 1.303 0 0 1-.064-1.838l8.271-8.868a1.297 1.297 0 0 1 1.836-.065 1.3 1.3 0 0 1 .064 1.836l-8.271 8.872zm-7.256-15.976a1.303 1.303 0 0 1-1.838.064 1.301 1.301 0 0 1-.063-1.837l10.043-10.771a1.3 1.3 0 0 1 1.899 1.771l-10.041 10.773z"/>
    <path d="M512.297 303.493a1.297 1.297 0 0 0-.371-.237l3.461-3.716a1.299 1.299 0 1 0-1.901-1.773l-2.828 3.037a1.298 1.298 0 0 0-.066-1.836 1.295 1.295 0 0 0-1.834.063l1.449-1.557a1.298 1.298 0 1 0-1.899-1.772l2.289-2.457a1.3 1.3 0 0 0-1.901-1.772l-4.135 4.435a1.299 1.299 0 1 0-1.9-1.773l-3.311 3.546a1.299 1.299 0 1 0-1.899-1.773l-7.623 8.175-2.422 2.596-15.303 16.409c-3.262 3.498-3.068 8.979.428 12.242a8.661 8.661 0 0 0 12.244-.428l17.539-18.807.184-.197 9.859-10.574a1.291 1.291 0 0 0-.06-1.831zm-17.404-73.004a1.3 1.3 0 0 1-1.836.064 1.3 1.3 0 0 1-.061-1.838l5.313-5.701a1.301 1.301 0 0 1 1.838-.064c.523.488.557 1.311.064 1.836l-5.318 5.703zm1.17-11.855a1.3 1.3 0 0 1-1.902-1.773l6.5-6.969a1.3 1.3 0 0 1 1.836-.064c.527.49.553 1.311.064 1.836l-6.498 6.97zm-1.622-6.053a1.299 1.299 0 0 1-1.836.066 1.304 1.304 0 0 1-.061-1.838l4.135-4.436a1.299 1.299 0 1 1 1.897 1.774l-4.135 4.434zm-18.615 15.344a1.298 1.298 0 1 1-1.899-1.772l6.5-6.971a1.3 1.3 0 0 1 1.836-.063c.527.49.555 1.311.063 1.836l-6.5 6.97zm9.703 5.064a1.3 1.3 0 0 1-1.901-1.773l8.271-8.869a1.299 1.299 0 0 1 1.836-.064 1.3 1.3 0 0 1 .064 1.836l-8.27 8.87z"/>
    <path d="M484.336 240.099a1.222 1.222 0 0 0-.371-.236l3.463-3.717a1.298 1.298 0 0 0-1.899-1.77l-2.832 3.033a1.303 1.303 0 0 0-.063-1.836 1.307 1.307 0 0 0-1.842.064l1.453-1.559a1.297 1.297 0 0 0-.061-1.836 1.302 1.302 0 0 0-1.838.064l2.289-2.453a1.302 1.302 0 0 0-.061-1.836 1.303 1.303 0 0 0-1.842.063l-4.135 4.436a1.304 1.304 0 0 0-.064-1.838 1.298 1.298 0 0 0-1.836.064l-3.307 3.547a1.298 1.298 0 1 0-1.898-1.772l-7.627 8.172-2.42 2.598-15.3 16.407c-3.264 3.5-3.07 8.982.426 12.246a8.66 8.66 0 0 0 12.244-.43l17.537-18.807.184-.199 9.865-10.571c.49-.524.46-1.344-.065-1.834zm-.311-13.76a1.303 1.303 0 0 1-1.838.064 1.306 1.306 0 0 1-.063-1.838l8.271-8.869a1.299 1.299 0 0 1 1.836-.064 1.3 1.3 0 0 1 .064 1.836l-8.27 8.871zm-49.962-30.332a1.3 1.3 0 0 1-1.824-.223 1.302 1.302 0 0 1 .224-1.826l6.144-4.8a1.301 1.301 0 0 1 1.6 2.05l-6.144 4.799zm.747-6.081a1.299 1.299 0 0 1-1.825-.223 1.296 1.296 0 0 1 .226-1.823l7.509-5.867a1.296 1.296 0 0 1 1.821.225 1.298 1.298 0 0 1-.223 1.824l-7.508 5.864zm-11.288 10.468a1.3 1.3 0 0 1-1.825-.224 1.296 1.296 0 0 1 .225-1.822l6.144-4.8a1.299 1.299 0 1 1 1.6 2.047l-6.144 4.799zm7.438-15.157a1.3 1.3 0 0 1-1.823-.222 1.302 1.302 0 0 1 .225-1.825l4.777-3.734a1.3 1.3 0 0 1 1.824.224 1.298 1.298 0 0 1-.224 1.825l-4.779 3.732zm-8.404 10.874a1.301 1.301 0 0 1-1.825-.224 1.3 1.3 0 0 1 .227-1.826l7.508-5.865a1.3 1.3 0 0 1 1.824.225 1.302 1.302 0 0 1-.225 1.824l-7.509 5.866zm4.526 10.016a1.299 1.299 0 1 1-1.599-2.049l9.558-7.466a1.299 1.299 0 0 1 1.598 2.047l-9.557 7.468zm-13.871-8.669a1.3 1.3 0 1 1-1.599-2.049l11.604-9.064a1.299 1.299 0 0 1 1.824.222c.441.566.34 1.382-.224 1.824l-11.605 9.067z"/>
    <path d="M419.871 209.294a1.332 1.332 0 0 0-.329-.292l4.002-3.127a1.303 1.303 0 0 0 .224-1.824 1.301 1.301 0 0 0-1.825-.224l-3.27 2.556a1.3 1.3 0 1 0-1.599-2.049l1.678-1.31c.564-.443.665-1.259.223-1.825s-1.257-.666-1.824-.224l2.647-2.066a1.3 1.3 0 0 0-1.601-2.048l-4.779 3.733a1.298 1.298 0 1 0-1.598-2.048l-3.821 2.985a1.298 1.298 0 1 0-1.598-2.048l-8.809 6.881-2.798 2.186-17.679 13.814a8.662 8.662 0 1 0 10.663 13.651l20.266-15.832.214-.167 11.391-8.9c.563-.44.664-1.257.222-1.822z"/>
  </g>
  <path fill="#ED5A81" d="M539.049 113.702v34.217c0 3.803 3.082 6.883 6.885 6.883s6.887-3.08 6.887-6.883V117.63l-13.772-3.928z"/>
  <path fill="#F96989" d="M540.957 151.698c-.326 8.469-2.689 29.949-17.404 42.229-1.785 1.488-1.73 4.247.059 5.721l7.482 6.163c2.832 2.332 7.1 1.448 8.746-1.829 4.09-8.15 10.252-25.664 10.58-51.813a6.864 6.864 0 0 1-9.463-.471zM569.4 82.149c0-3.367-2.756-6.117-6.123-6.117h-33.666c-3.367 0-6.123 2.75-6.123 6.117v23.047a7.32 7.32 0 0 0 5.309 7.034l32.453 9.255c4.086 1.16 8.15-1.904 8.15-6.152V82.149z"/>
  <path fill="#ED5A81" d="M535.846 79.923c0-1.474.529-2.834 1.41-3.891h-7.645c-3.367 0-6.125 2.75-6.125 6.117v23.047a7.321 7.321 0 0 0 5.311 7.034l7.166 2.042c-.229-1.216-.068.588-.117-34.349z"/>
</svg>
